<svg width="36" height="36" viewBox="0 0 36 36" fill="none" xmlns="http://www.w3.org/2000/svg">
<path d="M19.5 31.5L22.5 30L25.5 31.5V21H19.5V31.5ZM25.5 13.5V10.5L22.5 12L19.5 10.5V13.5L16.5 15L19.5 16.5V19.5L22.5 18L25.5 19.5V16.5L28.5 15L25.5 13.5ZM30 4.5H6C5.20435 4.5 4.44129 4.81607 3.87868 5.37868C3.31607 5.94129 3 6.70435 3 7.5V22.5C3 23.2956 3.31607 24.0587 3.87868 24.6213C4.44129 25.1839 5.20435 25.5 6 25.5H16.5V22.5H6V7.5H30V22.5H28.5V25.5H30C30.7956 25.5 31.5587 25.1839 32.1213 24.6213C32.6839 24.0587 33 23.2956 33 22.5V7.5C33 6.70435 32.6839 5.94129 32.1213 5.37868C31.5587 4.81607 30.7956 4.5 30 4.5ZM16.5 12H7.5V9H16.5V12ZM13.5 16.5H7.5V13.5H13.5V16.5ZM16.5 21H7.5V18H16.5V21Z" fill="#8B8B8B"/>
</svg>
